<svg width="138" height="131" viewBox="0 0 138 131" fill="none" xmlns="http://www.w3.org/2000/svg">
<g clip-path="url(#clip0_8_204)">
<path d="M69 32C77.7333 32 85.2667 41.3 86.9667 54.15L87.9667 61.65L93.0667 62.2C98.2667 62.7 102.333 69.25 102.333 77C102.333 85.25 97.8333 92 92.3333 92H49C41.6333 92 35.6667 83.05 35.6667 72C35.6667 61.75 40.7667 53.2 47.5333 52.15L51.1 51.6L52.7667 46.85C55.9333 37.7 62.1333 32 69 32ZM69 22C59.3667 22 51 30.2 46.8333 42.2C36.8 43.8 29 56.55 29 72C29 88.55 37.9667 102 49 102H92.3333C101.533 102 109 90.8 109 77C109 63.8 102.167 53.1 93.5 52.2C91.2333 34.95 81.1333 22 69 22Z" fill="#5F2F9A"/>
</g>
<defs>
<clipPath id="clip0_8_204">
<rect width="136.884" height="130.333" fill="white" transform="translate(0.472168 0.639893)"/>
</clipPath>
</defs>
</svg>
