<svg width="80" height="80" viewBox="0 0 80 80" fill="none" xmlns="http://www.w3.org/2000/svg">
<path d="M40 35.5556C28.8889 35.5556 19.4444 33.8148 11.6667 30.3333C3.88889 26.8519 0 22.6667 0 17.7778C0 12.8889 3.88889 8.7037 11.6667 5.22222C19.4444 1.74074 28.8889 0 40 0C51.1111 0 60.5556 1.74074 68.3333 5.22222C76.1111 8.7037 80 12.8889 80 17.7778C80 22.6667 76.1111 26.8519 68.3333 30.3333C60.5556 33.8148 51.1111 35.5556 40 35.5556ZM40 57.7778C28.8889 57.7778 19.4444 56.037 11.6667 52.5556C3.88889 49.0741 0 44.8889 0 40V28.8889C0 32.1482 1.51852 34.9081 4.55556 37.1689C7.59259 39.4267 11.2222 41.2593 15.4444 42.6667C19.6667 44.0741 24.0563 45.0919 28.6133 45.72C33.1674 46.3511 36.963 46.6667 40 46.6667C43.037 46.6667 46.8326 46.3511 51.3867 45.72C55.9437 45.0919 60.3333 44.0741 64.5556 42.6667C68.7778 41.2593 72.4074 39.4267 75.4445 37.1689C78.4815 34.9081 80 32.1482 80 28.8889V40C80 44.8889 76.1111 49.0741 68.3333 52.5556C60.5556 56.037 51.1111 57.7778 40 57.7778ZM40 80C28.8889 80 19.4444 78.2593 11.6667 74.7778C3.88889 71.2963 0 67.1111 0 62.2222V51.1111C0 54.3704 1.51852 57.1304 4.55556 59.3911C7.59259 61.6489 11.2222 63.4815 15.4444 64.8889C19.6667 66.2963 24.0563 67.3156 28.6133 67.9467C33.1674 68.5748 36.963 68.8889 40 68.8889C43.037 68.8889 46.8326 68.5748 51.3867 67.9467C55.9437 67.3156 60.3333 66.2963 64.5556 64.8889C68.7778 63.4815 72.4074 61.6489 75.4445 59.3911C78.4815 57.1304 80 54.3704 80 51.1111V62.2222C80 67.1111 76.1111 71.2963 68.3333 74.7778C60.5556 78.2593 51.1111 80 40 80Z" fill="#5F2F9A"/>
</svg>
