<svg width="80" height="80" viewBox="0 0 80 80" fill="none" xmlns="http://www.w3.org/2000/svg">
<path d="M76.6667 36.04L60 36C58.1667 36 56.6667 37.8 56.6667 40V76C56.6667 78.2 58.1667 80 60 80H76.6667C78.5 80 80 78.2 80 76V40C80 37.8 78.5 36.04 76.6667 36.04ZM76.6667 72H60V44H76.6667V72ZM66.6667 0H6.66667C2.96667 0 0 3.56 0 8V56C0 60.4 2.96667 64 6.66667 64H30V72H23.3333V80H50V72H43.3333V64H50V56H6.66667V8H66.6667V28H73.3333V8C73.3333 3.56 70.3333 0 66.6667 0ZM39.9 28L36.6667 16L33.4333 28H23.3333L31.5667 35.04L28.4333 46.68L36.6667 39.48L44.9 46.68L41.7667 35.04L50 28H39.9Z" fill="#5F2F9A"/>
</svg>
