<svg width="343" height="229" viewBox="0 0 343 229" fill="none" xmlns="http://www.w3.org/2000/svg">
<path d="M137 6C137 6 188.587 6 195.5 6C204 6 212.5 11.5 218.5 18.5C224.5 25.5 229.721 33.5 230.817 49.5C232.221 70 225.25 78 221.5 82.5C217.75 87 209 93.5 200 95C191 96.5 188 96 188 96" stroke="url(#paint0_linear_81_14)" stroke-width="12" stroke-linecap="round"/>
<path d="M138.5 21C138.5 21 185.068 21 189.923 21C195.892 21 201.862 24.6467 206.075 29.288C210.289 33.9293 213.956 39.2337 214.725 49.8424C215.712 63.4348 211.62 69.5 209.855 71.5C208.089 73.5 200.577 82 190 81C181.448 80.1915 175.874 83.3741 173 91C171.869 94 171.569 97.722 171.5 98.5" stroke="url(#paint1_linear_81_14)" stroke-width="12" stroke-linecap="round"/>
<path d="M139 37C139 37 186.093 37 188.276 37C190.961 37 193.646 38.6528 195.541 40.7564C197.437 42.86 199.086 45.2642 199.432 50.0724C200.791 68.9504 190.5 63.5 175.5 68C160.5 72.5 156.5 86 155.5 98.5" stroke="url(#paint2_linear_81_14)" stroke-width="12" stroke-linecap="round"/>
<path d="M184.328 51C173.328 51 165.328 52.5 153.828 61.5C145.791 67.7905 138.328 84 140.328 100" stroke="url(#paint3_linear_81_14)" stroke-width="12" stroke-linecap="round"/>
<path d="M57.04 165.972L57.132 173.056C56.8867 177.533 56.3347 181.305 55.476 184.372C54.6173 187.439 52.9307 190.229 50.416 192.744C46.2453 196.915 40.1733 199 32.2 199C22.816 199 16.376 197.773 12.88 195.32C9.384 192.805 7.636 188.297 7.636 181.796V133.496H33.12C40.48 133.496 46.2453 135.581 50.416 139.752C53.7893 143.125 55.7827 147.235 56.396 152.08C56.8253 155.515 57.04 160.145 57.04 165.972ZM41.492 183.544C42.6573 182.133 43.3933 180.201 43.7 177.748C44.068 175.233 44.252 171.339 44.252 166.064C44.252 160.789 44.068 156.987 43.7 154.656C43.3933 152.264 42.6573 150.363 41.492 148.952C39.284 146.253 36.0947 144.904 31.924 144.904H20.424V181.152C20.424 183.605 21.252 185.292 22.908 186.212C24.564 187.132 27.508 187.592 31.74 187.592C36.0333 187.592 39.284 186.243 41.492 183.544ZM73.4325 126.412C76.3152 126.412 78.1859 126.872 79.0445 127.792C79.9032 128.651 80.3325 130.521 80.3325 133.404C80.3325 136.225 79.8725 138.096 78.9525 139.016C78.0939 139.875 76.2232 140.304 73.3405 140.304C70.5192 140.304 68.6485 139.844 67.7285 138.924C66.8699 138.004 66.4405 136.133 66.4405 133.312C66.4405 130.491 66.8699 128.651 67.7285 127.792C68.6485 126.872 70.5499 126.412 73.4325 126.412ZM79.3205 199H67.3605V148.4H79.3205V199ZM118.456 146.836L130.416 146.1V196.608C130.416 202.435 128.76 206.881 125.448 209.948C122.198 213.076 117.352 214.64 110.912 214.64C105.944 214.64 101.59 213.659 97.8485 211.696C95.8858 210.715 94.3218 209.243 93.1565 207.28C91.9911 205.317 91.4085 202.987 91.4085 200.288L102.54 199.736C102.54 201.453 103.154 202.68 104.38 203.416C105.607 204.152 107.692 204.52 110.636 204.52C113.642 204.52 115.666 203.784 116.708 202.312C117.812 200.84 118.364 198.724 118.364 195.964L118.824 188.052L105.944 194.952C98.8911 194.952 94.1378 192.56 91.6845 187.776C89.4765 183.544 88.3725 178.361 88.3725 172.228C88.3725 164.929 88.9245 159.777 90.0285 156.772C91.1938 153.46 92.8498 151.068 94.9965 149.596C97.7565 147.756 101.375 146.836 105.852 146.836H118.456ZM118.456 177.656V157.6H109.348C105.914 157.6 103.552 158.765 102.264 161.096C100.976 163.427 100.332 166.677 100.332 170.848C100.332 175.019 100.976 177.993 102.264 179.772C103.614 181.489 105.975 182.348 109.348 182.348L118.456 177.656ZM149.8 126.412C152.682 126.412 154.553 126.872 155.412 127.792C156.27 128.651 156.7 130.521 156.7 133.404C156.7 136.225 156.24 138.096 155.32 139.016C154.461 139.875 152.59 140.304 149.708 140.304C146.886 140.304 145.016 139.844 144.096 138.924C143.237 138.004 142.808 136.133 142.808 133.312C142.808 130.491 143.237 128.651 144.096 127.792C145.016 126.872 146.917 126.412 149.8 126.412ZM155.688 199H143.728V148.4H155.688V199ZM191.512 199H184.06C179.521 199 176.056 197.651 173.664 194.952C171.333 192.253 170.168 189.033 170.168 185.292V157.692H165.108V148.584H170.168V138.28H182.128V148.584H190.592V157.692H182.128V184.556C182.128 187.439 183.508 188.88 186.268 188.88H191.512V199ZM237.563 199H229.559L225.879 192.652L213.091 199.552C205.977 199.552 201.193 196.976 198.739 191.824C197.513 189.309 196.654 186.611 196.163 183.728C195.734 180.784 195.519 177.748 195.519 174.62C195.519 171.431 195.55 169.1 195.611 167.628C195.673 166.095 195.826 164.347 196.071 162.384C196.317 160.36 196.654 158.673 197.083 157.324C197.574 155.975 198.249 154.595 199.107 153.184C199.966 151.712 201.009 150.547 202.235 149.688C204.995 147.787 208.583 146.836 212.999 146.836H225.603L237.563 146.1V199ZM225.603 182.256V157.6H216.495C213.122 157.6 210.761 158.888 209.411 161.464C208.123 164.04 207.479 167.904 207.479 173.056C207.479 178.147 208.093 181.735 209.319 183.82C210.607 185.905 212.999 186.948 216.495 186.948L225.603 182.256ZM262.052 199L250.092 199.092V129.816H262.052V199ZM280.972 126.412C283.854 126.412 285.725 126.872 286.584 127.792C287.442 128.651 287.872 130.521 287.872 133.404C287.872 136.225 287.412 138.096 286.492 139.016C285.633 139.875 283.762 140.304 280.88 140.304C278.058 140.304 276.188 139.844 275.268 138.924C274.409 138.004 273.98 136.133 273.98 133.312C273.98 130.491 274.409 128.651 275.268 127.792C276.188 126.872 278.089 126.412 280.972 126.412ZM286.86 199H274.9V148.4H286.86V199ZM336.392 199H328.388L324.708 192.652L311.92 199.552C304.805 199.552 300.021 196.976 297.568 191.824C296.341 189.309 295.482 186.611 294.992 183.728C294.562 180.784 294.348 177.748 294.348 174.62C294.348 171.431 294.378 169.1 294.44 167.628C294.501 166.095 294.654 164.347 294.9 162.384C295.145 160.36 295.482 158.673 295.912 157.324C296.402 155.975 297.077 154.595 297.936 153.184C298.794 151.712 299.837 150.547 301.064 149.688C303.824 147.787 307.412 146.836 311.828 146.836H324.432L336.392 146.1V199ZM324.432 182.256V157.6H315.324C311.95 157.6 309.589 158.888 308.24 161.464C306.952 164.04 306.308 167.904 306.308 173.056C306.308 178.147 306.921 181.735 308.148 183.82C309.436 185.905 311.828 186.948 315.324 186.948L324.432 182.256Z" fill="#6D69E6"/>
<defs>
<linearGradient id="paint0_linear_81_14" x1="184" y1="6" x2="184" y2="96" gradientUnits="userSpaceOnUse">
<stop stop-color="#311356"/>
<stop offset="1" stop-color="#6D69E6"/>
</linearGradient>
<linearGradient id="paint1_linear_81_14" x1="176.688" y1="21" x2="176.688" y2="99" gradientUnits="userSpaceOnUse">
<stop stop-color="#311356"/>
<stop offset="1" stop-color="#6D69E6"/>
</linearGradient>
<linearGradient id="paint2_linear_81_14" x1="169.25" y1="37" x2="169.25" y2="98.5" gradientUnits="userSpaceOnUse">
<stop stop-color="#311356"/>
<stop offset="1" stop-color="#6D69E6"/>
</linearGradient>
<linearGradient id="paint3_linear_81_14" x1="162.078" y1="50.5" x2="162.078" y2="98" gradientUnits="userSpaceOnUse">
<stop stop-color="#311356"/>
<stop offset="1" stop-color="#6D69E6"/>
</linearGradient>
</defs>
</svg>
