<svg width="80" height="80" viewBox="0 0 80 80" fill="none" xmlns="http://www.w3.org/2000/svg">
<path d="M28.25 56.6316C29.4722 55.0877 30.8472 53.8246 32.375 52.8421C33.9028 51.8596 35.5278 51.193 37.25 50.8421C36.9722 52.1754 36.75 53.5088 36.5833 54.8421C36.4167 56.1754 36.3333 57.5439 36.3333 58.9474C36.3333 60.6316 36.4306 62.2807 36.625 63.8947C36.8194 65.5088 37.1389 67.0526 37.5833 68.5263L28.25 56.6316ZM21.1667 47.7895L14.1667 38.7368C17.6111 34.386 21.5556 31.0526 26 28.7368C30.4444 26.4211 35.1111 25.2632 40 25.2632C42.7222 25.2632 45.3889 25.6316 48 26.3684C50.6111 27.1053 53.1111 28.1754 55.5 29.5789C53.0556 30.1404 50.7917 31.1579 48.7083 32.6316C46.625 34.1053 44.75 35.9298 43.0833 38.1053C42.5833 38.0351 42.0694 37.9825 41.5417 37.9474C41.0139 37.9123 40.5 37.8947 40 37.8947C36.4444 37.8947 33.0417 38.7544 29.7917 40.4737C26.5417 42.193 23.6667 44.6316 21.1667 47.7895ZM7 29.8947L0 21.0526C5.27778 14.2456 11.375 9.03509 18.2917 5.42105C25.2083 1.80702 32.4444 0 40 0C47.5556 0 54.7917 1.80702 61.7083 5.42105C68.625 9.03509 74.7222 14.2456 80 21.0526L73 29.8947C68.6111 24.3509 63.5694 20.0877 57.875 17.1053C52.1806 14.1228 46.2222 12.6316 40 12.6316C33.7778 12.6316 27.8194 14.1228 22.125 17.1053C16.4306 20.0877 11.3889 24.3509 7 29.8947ZM63.3333 37.8947L64.3333 44.2105C65 44.5614 65.625 44.9298 66.2083 45.3158C66.7917 45.7018 67.3889 46.1754 68 46.7368L72.8333 44.8421L76.1667 52L72.3333 56.2105C72.4445 57.0526 72.5 57.9649 72.5 58.9474C72.5 59.9298 72.4445 60.8421 72.3333 61.6842L76.1667 65.8947L72.8333 73.0526L68 71.1579C67.3889 71.7193 66.7917 72.193 66.2083 72.5789C65.625 72.9649 65 73.3333 64.3333 73.6842L63.3333 80H56.6667L55.6667 73.6842C55 73.3333 54.375 72.9649 53.7917 72.5789C53.2083 72.193 52.6111 71.7193 52 71.1579L47.1667 73.0526L43.8333 65.8947L47.6667 61.6842C47.5556 60.8421 47.5 59.9298 47.5 58.9474C47.5 57.9649 47.5556 57.0526 47.6667 56.2105L43.8333 52L47.1667 44.8421L52 46.7368C52.6111 46.1754 53.2083 45.7018 53.7917 45.3158C54.375 44.9298 55 44.5614 55.6667 44.2105L56.6667 37.8947H63.3333ZM60 50.5263C58.1667 50.5263 56.5972 51.3509 55.2917 53C53.9861 54.6491 53.3333 56.6316 53.3333 58.9474C53.3333 61.2632 53.9861 63.2456 55.2917 64.8947C56.5972 66.5439 58.1667 67.3684 60 67.3684C61.8333 67.3684 63.4028 66.5439 64.7083 64.8947C66.0139 63.2456 66.6667 61.2632 66.6667 58.9474C66.6667 56.6316 66.0139 54.6491 64.7083 53C63.4028 51.3509 61.8333 50.5263 60 50.5263Z" fill="#5F2F9A"/>
</svg>
