<svg width="80" height="80" viewBox="0 0 80 80" fill="none" xmlns="http://www.w3.org/2000/svg">
<rect width="80" height="80" fill="#5F2F9A"/>
<path d="M13.3334 70V53.3333C13.3334 51.5 13.9862 49.9306 15.2917 48.625C16.5973 47.3194 18.1667 46.6667 20 46.6667H60C61.8334 46.6667 63.4028 47.3194 64.7084 48.625C66.0139 49.9306 66.6667 51.5 66.6667 53.3333V70H13.3334ZM30 43.3333C25.3889 43.3333 21.4584 41.7083 18.2084 38.4583C14.9584 35.2083 13.3334 31.2778 13.3334 26.6667C13.3334 22.0556 14.9584 18.125 18.2084 14.875C21.4584 11.625 25.3889 10 30 10H50C54.6111 10 58.5417 11.625 61.7917 14.875C65.0417 18.125 66.6667 22.0556 66.6667 26.6667C66.6667 31.2778 65.0417 35.2083 61.7917 38.4583C58.5417 41.7083 54.6111 43.3333 50 43.3333H30ZM20 63.3333H60V53.3333H20V63.3333ZM30 36.6667H50C52.7778 36.6667 55.1389 35.6944 57.0834 33.75C59.0278 31.8056 60 29.4444 60 26.6667C60 23.8889 59.0278 21.5278 57.0834 19.5833C55.1389 17.6389 52.7778 16.6667 50 16.6667H30C27.2223 16.6667 24.8612 17.6389 22.9167 19.5833C20.9723 21.5278 20 23.8889 20 26.6667C20 29.4444 20.9723 31.8056 22.9167 33.75C24.8612 35.6944 27.2223 36.6667 30 36.6667ZM30 30C30.9445 30 31.7362 29.6806 32.375 29.0417C33.0139 28.4028 33.3334 27.6111 33.3334 26.6667C33.3334 25.7222 33.0139 24.9306 32.375 24.2917C31.7362 23.6528 30.9445 23.3333 30 23.3333C29.0556 23.3333 28.2639 23.6528 27.625 24.2917C26.9862 24.9306 26.6667 25.7222 26.6667 26.6667C26.6667 27.6111 26.9862 28.4028 27.625 29.0417C28.2639 29.6806 29.0556 30 30 30ZM50 30C50.9445 30 51.7361 29.6806 52.375 29.0417C53.0139 28.4028 53.3334 27.6111 53.3334 26.6667C53.3334 25.7222 53.0139 24.9306 52.375 24.2917C51.7361 23.6528 50.9445 23.3333 50 23.3333C49.0556 23.3333 48.2639 23.6528 47.625 24.2917C46.9861 24.9306 46.6667 25.7222 46.6667 26.6667C46.6667 27.6111 46.9861 28.4028 47.625 29.0417C48.2639 29.6806 49.0556 30 50 30Z" fill="white"/>
</svg>
