<svg width="80" height="80" viewBox="0 0 80 80" fill="none" xmlns="http://www.w3.org/2000/svg">
<path d="M70.5628 43.92C70.7273 42.64 70.8507 41.36 70.8507 40C70.8507 38.64 70.7273 37.36 70.5628 36.08L79.2396 29.48C80.0209 28.88 80.2265 27.8 79.7331 26.92L71.5086 13.08C71.1385 12.44 70.4395 12.08 69.6993 12.08C69.4525 12.08 69.2058 12.12 69.0002 12.2L58.7608 16.2C56.6224 14.6 54.3196 13.28 51.8111 12.28L50.2485 1.68C50.1251 0.72 49.2616 0 48.2335 0H31.7847C30.7566 0 29.893 0.72 29.7697 1.68L28.207 12.28C25.6986 13.28 23.3957 14.64 21.2574 16.2L11.018 12.2C10.7712 12.12 10.5245 12.08 10.2778 12.08C9.57871 12.08 8.87963 12.44 8.50953 13.08L0.285106 26.92C-0.249481 27.8 -0.0027482 28.88 0.778572 29.48L9.45534 36.08C9.29085 37.36 9.16749 38.68 9.16749 40C9.16749 41.32 9.29085 42.64 9.45534 43.92L0.778572 50.52C-0.0027482 51.12 -0.208359 52.2 0.285106 53.08L8.50953 66.92C8.87963 67.56 9.57871 67.92 10.3189 67.92C10.5656 67.92 10.8124 67.88 11.018 67.8L21.2574 63.8C23.3957 65.4 25.6986 66.72 28.207 67.72L29.7697 78.32C29.893 79.28 30.7566 80 31.7847 80H48.2335C49.2616 80 50.1251 79.28 50.2485 78.32L51.8111 67.72C54.3196 66.72 56.6224 65.36 58.7608 63.8L69.0002 67.8C69.2469 67.88 69.4937 67.92 69.7404 67.92C70.4395 67.92 71.1385 67.56 71.5086 66.92L79.7331 53.08C80.2265 52.2 80.0209 51.12 79.2396 50.52L70.5628 43.92ZM62.4207 37.08C62.5851 38.32 62.6263 39.16 62.6263 40C62.6263 40.84 62.544 41.72 62.4207 42.92L61.8449 47.44L65.5048 50.24L69.946 53.6L67.0674 58.44L61.8449 56.4L57.5682 54.72L53.8672 57.44C52.099 58.72 50.413 59.68 48.727 60.36L44.368 62.08L43.7101 66.6L42.8876 72H37.1305L36.3492 66.6L35.6913 62.08L31.3323 60.36C29.5641 59.64 27.9192 58.72 26.2743 57.52L22.5322 54.72L18.1732 56.44L12.9507 58.48L10.0722 53.64L14.5134 50.28L18.1732 47.48L17.5975 42.96C17.4742 41.72 17.3919 40.8 17.3919 40C17.3919 39.2 17.4742 38.28 17.5975 37.08L18.1732 32.56L14.5134 29.76L10.0722 26.4L12.9507 21.56L18.1732 23.6L22.4499 25.28L26.1509 22.56C27.9192 21.28 29.6052 20.32 31.2912 19.64L35.6501 17.92L36.3081 13.4L37.1305 8H42.8465L43.6278 13.4L44.2858 17.92L48.6447 19.64C50.413 20.36 52.0579 21.28 53.7028 22.48L57.4449 25.28L61.8038 23.56L67.0263 21.52L69.9049 26.36L65.5048 29.76L61.8449 32.56L62.4207 37.08ZM40.0091 24C30.9211 24 23.5602 31.16 23.5602 40C23.5602 48.84 30.9211 56 40.0091 56C49.0971 56 56.4579 48.84 56.4579 40C56.4579 31.16 49.0971 24 40.0091 24ZM40.0091 48C35.4856 48 31.7847 44.4 31.7847 40C31.7847 35.6 35.4856 32 40.0091 32C44.5325 32 48.2335 35.6 48.2335 40C48.2335 44.4 44.5325 48 40.0091 48Z" fill="#5F2F9A"/>
</svg>
