<svg width="50" height="50" viewBox="0 0 50 50" fill="none" xmlns="http://www.w3.org/2000/svg">
<path d="M8.33333 0C3.76397 0 0 3.76397 0 8.33333V41.6667C0 46.236 3.76397 50 8.33333 50H41.6667C46.236 50 50 46.236 50 41.6667V8.33333C50 3.76397 46.236 0 41.6667 0H8.33333ZM8.33333 5.55556H41.6667C43.2362 5.55556 44.4444 6.7638 44.4444 8.33333V41.6667C44.4444 43.2362 43.2362 44.4444 41.6667 44.4444H8.33333C6.7638 44.4444 5.55556 43.2362 5.55556 41.6667V8.33333C5.55556 6.7638 6.7638 5.55556 8.33333 5.55556ZM10.281 11.1111L21.2294 26.7578L10.8507 38.8889H14.5508L22.8895 29.1233L29.7146 38.8889H40.3809L28.7543 22.2493L38.2595 11.1111H34.6191L27.1105 19.8893L20.9798 11.1111H10.281ZM15.4622 13.8563H19.5909L35.2322 36.1437H31.0764L15.4622 13.8563Z" fill="#311356"/>
</svg>
